<?xml version="1.0" encoding="UTF-8"?>
<svg version="1.1" xmlns="http://www.w3.org/2000/svg" width="245" height="278">
<path d="M0 0 C80.85 0 161.7 0 245 0 C245 91.74 245 183.48 245 278 C164.15 278 83.3 278 0 278 C0 186.26 0 94.52 0 0 Z " fill="#FDFDFD" transform="translate(0,0)"/>
<path d="M0 0 C1.134375 0.020625 2.26875 0.04125 3.4375 0.0625 C3.27894531 1.04089844 3.12039062 2.01929688 2.95703125 3.02734375 C0.99541428 16.90499984 1.4958537 31.63561746 9.125 43.8125 C17.58137973 54.98755896 27.89356394 64.66631275 37.78515625 74.54296875 C39.36753159 76.12601911 40.94975857 77.70921777 42.53184509 79.29255676 C45.83251602 82.59469446 49.13496949 85.89503599 52.4387207 89.1940918 C56.6572196 93.40688465 60.87119967 97.62416455 65.08385563 101.84279919 C68.34467912 105.10724792 71.60789505 108.36929678 74.87182426 111.63064003 C76.42617462 113.18432703 77.97979282 114.73874687 79.53264046 116.29393578 C81.70692062 118.47077588 83.8844157 120.64435058 86.06274414 122.81713867 C86.6930957 123.44951447 87.32344727 124.08189026 87.97290039 124.73342896 C91.75507236 128.49793798 95.65590903 132.07305073 99.69859886 135.5566349 C111.1323549 145.4581145 123.53533057 156.35599171 128.4375 171.0625 C129.43193337 184.91353625 128.38764481 195.53706811 119.125 206.5625 C115.23728675 210.57210525 111.69143772 213.20643602 106.4375 215.0625 C105.65503906 215.35769531 104.87257813 215.65289062 104.06640625 215.95703125 C93.51509499 219.56192542 83.59969748 218.76089721 73.4375 214.0625 C65.62247601 209.01305088 59.17155036 202.10448991 52.65014648 195.53588867 C50.8543093 193.72918409 49.04783317 191.93360115 47.24023438 190.13867188 C46.0957111 188.99282946 44.95180705 187.84636813 43.80859375 186.69921875 C43.26810898 186.16278244 42.72762421 185.62634613 42.17076111 185.07365417 C38.4375 181.29250672 38.4375 181.29250672 38.4375 179.0625 C37.550625 179.536875 36.66375 180.01125 35.75 180.5 C28.87793035 183.74154229 20.18986391 184.62953525 12.90234375 182.2265625 C5.87490145 178.63449079 0.32335224 173.12013893 -2.5 165.6875 C-4.63699474 157.97573636 -4.54329839 150.12841715 -0.5625 143.0625 C3.74365795 136.63914772 9.03267686 132.41169097 16.4375 130.0625 C24.91578196 128.69386305 32.27999394 130.75485966 39.44140625 135.34765625 C45.18171963 139.79856878 48.92378676 145.16909437 49.8828125 152.4375 C50.09756459 159.08049805 49.58477522 164.3552102 46.3125 170.1953125 C45.1546088 172.32249608 45.1546088 172.32249608 45.4375 176.0625 C47.55347627 179.11891017 50.21284286 181.70035161 52.79736328 184.36669922 C53.99079957 185.60063915 55.17553662 186.84301085 56.35498047 188.09033203 C69.98859571 203.38615265 69.98859571 203.38615265 88.6472168 209.75366211 C97.26628403 209.98129994 104.39210584 208.31858771 111.4375 203.0625 C113.96702502 200.61359729 115.76344881 198.15215237 117.4375 195.0625 C117.77394531 194.44632813 118.11039062 193.83015625 118.45703125 193.1953125 C121.64951236 186.16893856 121.417828 177.80874366 119.5 170.4375 C115.56906852 160.65515209 105.4114514 152.90752987 98.0559082 145.63085938 C97.0492966 144.63109957 96.04294663 143.63107627 95.03683472 142.6308136 C92.89058666 140.49776878 90.74289975 138.36618754 88.59414101 136.235672 C85.18932489 132.85898927 81.79017484 129.47664039 78.39213562 126.09313965 C77.2227789 124.9289249 76.05341487 123.7647175 74.88404369 122.60051727 C74.2990055 122.01806464 73.71396731 121.43561201 73.11120069 120.8355093 C65.21477997 112.97497918 57.31352665 105.11935308 49.40209961 97.27392578 C44.04270122 91.95914632 38.69055841 86.63717297 33.34639233 81.30707598 C30.52696067 78.49567661 27.70399562 75.68804832 24.87197304 72.889328 C22.20956629 70.25818458 19.55680741 67.61767759 16.91085434 64.96999168 C15.48750053 63.55057636 14.05422211 62.14113444 12.62055969 60.73213196 C4.45569123 52.52886426 -0.70363097 43.93749453 -4.5625 33.0625 C-4.9234375 32.11117187 -5.284375 31.15984375 -5.65625 30.1796875 C-8.31860288 21.02211164 -6.75835706 10.21457576 -4.5625 1.0625 C-3.5625 0.0625 -3.5625 0.0625 0 0 Z " fill="#C31D26" transform="translate(13.5625,49.9375)"/>
<path d="M0 0 C0.89976563 -0.020625 1.79953125 -0.04125 2.7265625 -0.0625 C19.98700769 -0.16169796 32.44349956 9.04884942 44.2890625 20.65966797 C45.88036975 22.25538463 47.44402275 23.87376468 49 25.50390625 C49.49556396 26.01791992 49.99112793 26.53193359 50.50170898 27.06152344 C51.86044355 28.48194515 53.19847974 29.92208267 54.53515625 31.36328125 C56.61605028 33.47202752 56.61605028 33.47202752 58.73168945 33.14794922 C61.68339196 31.91132069 63.30527085 30.0861052 65.5078125 27.76953125 C66.84199219 26.3937793 66.84199219 26.3937793 68.203125 24.99023438 C70.04916854 23.06253891 71.88792409 21.12814435 73.7265625 19.19335938 C83.62134844 9.00713218 95.6509862 0.93103701 110.22265625 0.046875 C127.79810087 -0.17489717 143.06193889 4.85142703 156.0625 16.9375 C166.41297749 27.72096559 170.35077268 41.75618436 170.08203125 56.34375 C169.18422344 73.28351996 160.85243533 86.83787135 148.875 98.25 C148.14982178 98.95398926 147.42464355 99.65797852 146.67749023 100.38330078 C143.03514904 102.80941288 140.73677297 102.70994857 136.38671875 102.640625 C135.68352005 102.63496521 134.98032135 102.62930542 134.2558136 102.62347412 C132.02399752 102.60119769 129.79382539 102.55102373 127.5625 102.5 C126.04364309 102.47992343 124.52476084 102.46167468 123.00585938 102.4453125 C119.29444009 102.40477269 115.58654561 102.32648291 111.875 102.25 C109.565 97.96 107.255 93.67 104.875 89.25 C100.62182775 89.81288942 100.62182775 89.81288942 98.93969727 93.46875 C98.2603132 94.88955588 97.59510895 96.31719686 96.94140625 97.75 C96.20261961 99.29173647 95.4636827 100.83340094 94.72460938 102.375 C93.57610371 104.81517481 92.43374171 107.25807425 91.2956543 109.703125 C90.19271379 112.05961215 89.06817621 114.4048364 87.94140625 116.75 C87.44115685 117.85311523 87.44115685 117.85311523 86.93080139 118.97851562 C85.93969727 121.03125 85.93969727 121.03125 83.875 124.25 C82.225 124.58 80.575 124.91 78.875 125.25 C76.235 120.63 73.595 116.01 70.875 111.25 C66.77865961 111.78864739 66.77865961 111.78864739 65.3125 114.68359375 C64.838125 115.67488281 64.36375 116.66617188 63.875 117.6875 C60.9503179 123.78323688 60.9503179 123.78323688 56.875 125.25 C53.04289008 119.50183512 49.94767294 113.5273263 46.90625 107.33935547 C44.39081485 102.23316559 41.71804831 97.2396223 38.90625 92.2890625 C37.875 90.25 37.875 90.25 37.875 88.25 C34.50659179 89.20667376 33.12552923 89.88584579 31.109375 92.81640625 C30.61953125 93.80511719 30.1296875 94.79382813 29.625 95.8125 C26.88812336 101.23687664 26.88812336 101.23687664 25.875 102.25 C23.88742972 102.34983058 21.8963248 102.38080753 19.90625 102.3828125 C18.69582031 102.38410156 17.48539063 102.38539062 16.23828125 102.38671875 C14.96339844 102.38285156 13.68851563 102.37898438 12.375 102.375 C11.10011719 102.37886719 9.82523438 102.38273437 8.51171875 102.38671875 C7.30128906 102.38542969 6.09085938 102.38414063 4.84375 102.3828125 C3.72419922 102.38168457 2.60464844 102.38055664 1.45117188 102.37939453 C-1.125 102.25 -1.125 102.25 -2.125 101.25 C-2.25 98.75 -2.25 98.75 -2.125 96.25 C-0.44199331 94.56699331 1.69508727 95.02190923 4.00390625 94.93359375 C5.55561523 94.87075195 5.55561523 94.87075195 7.13867188 94.80664062 C8.22728516 94.76732422 9.31589844 94.72800781 10.4375 94.6875 C12.0762207 94.62272461 12.0762207 94.62272461 13.74804688 94.55664062 C16.45689564 94.45017932 19.16583992 94.34816484 21.875 94.25 C22.17269287 93.61908447 22.47038574 92.98816895 22.77709961 92.33813477 C24.1200233 89.49520648 25.46621615 86.65383849 26.8125 83.8125 C27.28107422 82.81927734 27.74964844 81.82605469 28.23242188 80.80273438 C28.9043457 79.38637695 28.9043457 79.38637695 29.58984375 77.94140625 C30.00355225 77.06685791 30.41726074 76.19230957 30.84350586 75.29125977 C31.875 73.25 31.875 73.25 32.875 72.25 C34.54117115 72.20936168 36.20888095 72.207279 37.875 72.25 C44.02852145 83.84293053 50.06006065 95.48347781 55.875 107.25 C56.205 107.91 56.535 108.57 56.875 109.25 C58.36 109.745 58.36 109.745 59.875 110.25 C60.101875 109.445625 60.32875 108.64125 60.5625 107.8125 C62.21131588 103.33714261 64.48044412 99.36278682 66.875 95.25 C69.18359375 95.40625 69.18359375 95.40625 71.875 96.25 C73.53515625 98.71875 73.53515625 98.71875 74.9375 101.75 C76.60078815 105.83589384 76.60078815 105.83589384 80.05859375 108.09375 C80.95771484 108.17109375 80.95771484 108.17109375 81.875 108.25 C87.20035637 99.26532054 92.03368157 90.11608185 96.63623047 80.74121094 C97.04373535 79.91266602 97.45124023 79.08412109 97.87109375 78.23046875 C98.23388428 77.48692139 98.5966748 76.74337402 98.97045898 75.97729492 C99.875 74.25 99.875 74.25 100.875 73.25 C103.1875 72.8125 103.1875 72.8125 105.875 73.25 C109.16076322 77.55800067 111.40293079 82.2040227 113.625 87.125 C113.94082031 87.81335938 114.25664062 88.50171875 114.58203125 89.2109375 C115.35093019 90.8885352 116.11362032 92.56897632 116.875 94.25 C120.72858472 94.4253878 124.58113439 94.53121462 128.4375 94.625 C129.52353516 94.67527344 130.60957031 94.72554688 131.72851562 94.77734375 C138.8210117 94.92745435 138.8210117 94.92745435 144.859375 91.609375 C146.47017629 89.98230064 146.47017629 89.98230064 147.875 88.25 C148.70386719 87.25742188 149.53273437 86.26484375 150.38671875 85.2421875 C159.93938301 71.5563238 162.7754128 58.84738854 160.875 42.25 C159.78329257 37.80419568 158.23487582 34.1601134 155.875 30.25 C155.4521875 29.51910156 155.029375 28.78820312 154.59375 28.03515625 C148.57551309 18.92032651 137.63623076 12.02818115 127.08398438 9.62060547 C114.00634948 7.42654603 100.56202334 8.06478103 89.54882812 15.90625 C82.32726632 21.62054534 75.99559058 28.03305923 69.67504883 34.71728516 C68.32984896 36.13485863 66.96787287 37.53645315 65.60546875 38.9375 C64.81551514 39.76636719 64.02556152 40.59523437 63.21166992 41.44921875 C60.875 43.25 60.875 43.25 58.36352539 43.77758789 C54.98529167 43.0613745 53.69822771 41.61344759 51.328125 39.12109375 C50.4825 38.25033203 49.636875 37.37957031 48.765625 36.48242188 C47.89421875 35.56009766 47.0228125 34.63777344 46.125 33.6875 C32.03851812 18.9539734 19.08266412 8.36292185 -1.9375 7.8125 C-14.53102673 7.81545415 -24.70334045 13.09071967 -34.125 21.25 C-36.31456048 23.49896716 -38.20467445 25.75876685 -40.125 28.25 C-41.775 27.92 -43.425 27.59 -45.125 27.25 C-45.890625 25.58203125 -45.890625 25.58203125 -46.125 23.25 C-35.72983971 7.68110167 -18.21015584 0.10173271 0 0 Z " fill="#C41C25" transform="translate(62.125,14.75)"/>
<path d="M0 0 C5.03601613 2.17593905 8.04619226 5.54733887 10.6328125 10.33203125 C12.47433623 15.85660243 12.449798 21.24208786 10.0078125 26.58203125 C7.16116595 31.64946589 3.00806415 35.08580383 -2.3671875 37.33203125 C-9.01460109 38.31262797 -14.23865558 37.74066082 -19.71484375 33.75390625 C-25.12649872 29.0970684 -27.06120927 24.49380632 -27.7421875 17.45703125 C-27.5354632 11.75579275 -25.55972534 7.51066294 -21.51953125 3.49609375 C-14.93029153 -1.59830937 -7.9498408 -2.24327191 0 0 Z " fill="#FAFAFA" transform="translate(44.3671875,188.66796875)"/>
<path d="M0 0 C0.66 0.33 1.32 0.66 2 1 C-0.64 3.64 -3.28 6.28 -6 9 C-6 6 -6 6 -3.5625 3.375 C-2.716875 2.59125 -1.87125 1.8075 -1 1 C-0.67 0.67 -0.34 0.34 0 0 Z " fill="#F0E2E6" transform="translate(26,190)"/>
<path d="M0 0 C0.66 0.66 1.32 1.32 2 2 C-0.97 4.475 -0.97 4.475 -4 7 C-4.33 6.01 -4.66 5.02 -5 4 C-3.74458443 1.48916886 -2.49936512 1.12874554 0 0 Z " fill="#CA2236" transform="translate(24,189)"/>
<path d="M0 0 C2.0625 0.4375 2.0625 0.4375 4 1 C1.84365964 3.15634036 -0.37098712 4.47793991 -3 6 C-1.125 1.125 -1.125 1.125 0 0 Z " fill="#EAE7E7" transform="translate(164,103)"/>
</svg>
